/* XPM */
static char *aec7b473e16f4715ff29a11990208704xZ7HEKyw5AWTmXXG[] = {
/* columns rows colors chars-per-pixel */
"16 16 38 1 ",
"  c black",
". c #020202",
"X c #060606",
"o c #070707",
"O c gray3",
"+ c gray4",
"@ c #0C0C0C",
"# c #0E0E0E",
"$ c #0A1106",
"% c #0A1206",
"& c #0F170B",
"* c #121A0E",
"= c #141C10",
"- c #1E1B1F",
"; c #182014",
": c #241427",
"> c #251A27",
", c #251D27",
"< c #261829",
"1 c #2A1D2C",
"2 c #282229",
"3 c #312933",
"4 c #5A485F",
"5 c #77607E",
"6 c #85698C",
"7 c #AA5EBA",
"8 c #AB66BA",
"9 c #AD72BA",
"0 c #B17EBC",
"q c #B08BBA",
"w c #B38BBD",
"e c #B48EBE",
"r c #E680FC",
"t c #E78AFC",
"y c #EA9AFC",
"u c #ECA8FC",
"i c #EEB8FC",
"p c #EFBCFC",
/* pixels */
"$$==$$$%%**$*;*$",
"  @@        X@X ",
"  &@@@    X@@@X ",
" X#@#@    X@@@X ",
"@@ .########+ +@",
"@@ .#######@X +@",
"    ######@&o   ",
",,<<32####-31:<,",
",,<<32####-31:<,",
"pirtpe####5pyrup",
"ww78w6@###4q970e",
"@@   X@@##+   +@",
"++XXXX++++XXXX++",
"  @@@+    +@@@X ",
"  +oXX    XXX+  ",
"                "
};
