/* XPM */
static char *_6b32f9ee1d1480ffbb4e8ff22bb3b1c7eqklCYXgGz8WTPK[] = {
/* columns rows colors chars-per-pixel */
"16 16 63 1 ",
"  c #C6A075",
". c #C8A379",
"X c #C8A57C",
"o c #A69B84",
"O c #A79E88",
"+ c #A89F88",
"@ c #ACA38C",
"# c #ADA690",
"$ c #B2A991",
"% c #B2AA93",
"& c #B2AC97",
"* c #B8B19B",
"= c #BCBAA5",
"- c #CBAA81",
"; c #CAAD85",
": c #CEAD85",
"> c #CFAF86",
", c #D0B088",
"< c #D1B68E",
"1 c #D8AF92",
"2 c #D4C192",
"3 c #D6C293",
"4 c #D6C496",
"5 c #D6C597",
"6 c #D6C598",
"7 c #D8C698",
"8 c #D7C89A",
"9 c #D8C89B",
"0 c #D8C99C",
"q c #D9CB9E",
"w c #D9CC9F",
"e c #DACC9F",
"r c #D9CCA0",
"t c #DBCFA2",
"y c #DBCFA3",
"u c #DCCFA2",
"i c #DACEAC",
"p c #DBD0A3",
"a c #DBD0A4",
"s c #DDD0A4",
"d c #DDD3A7",
"f c #DFD4A7",
"g c #DED3A8",
"h c #DED4A9",
"j c #DFD5AC",
"k c #DED6B5",
"l c #E0D5A9",
"z c #E0D6AA",
"x c #E1D7AB",
"c c #E1D7AC",
"v c #E0D8AC",
"b c #E2DAAE",
"n c #E1D8B0",
"m c #E2DCB1",
"M c #E3DCB2",
"N c #E2D8B5",
"B c #E4DDB4",
"V c #E4DFB9",
"C c #E4DDBC",
"Z c #E6E0B8",
"A c #E8E3BC",
"S c #E8E4BF",
"D c #EBE9C6",
/* pixels */
"1dacu5cghtpvzudO",
".tw6pw7v<tbvM4z=",
">h755Bdphdpwq6r#",
"XzZqwwhpbvwhqrg#",
"<qVytMdvphgqrutO",
"NdtrgAdp6rqruqqo",
"jdtq4Zqtq54rtgq$",
"itggqjq<qu6tcgq*",
"itgdqzq2qu6thdq*",
"Cyyydd53q7quggp$",
"k6qht6wltqhq5tg@",
";6uhzp9hzcq74qt#",
" q6vwvtwVSzw5qa&",
">tzhz3ucvBdhtqt%",
"-vhjDzvhvzcq7ht$",
",dbdBBdzuqdhchhO"
};
