/* XPM */
static char *_b3817f8abd54035fd8c540136d4200btWLvuLgwg2TCrJgC[] = {
/* columns rows colors chars-per-pixel */
"16 16 95 2 ",
"   c None",
".  c #142A0C",
"X  c #1A3719",
"o  c #07272E",
"O  c #07282D",
"+  c #07282E",
"@  c #08282D",
"#  c #092B2F",
"$  c #0D322F",
"%  c #082A30",
"&  c #0D3034",
"*  c #18442F",
"=  c #174632",
"-  c #174633",
";  c #194631",
":  c #184632",
">  c #1B4A39",
",  c #224D30",
"<  c #235335",
"1  c #295A34",
"2  c #2A5A39",
"3  c #1F4D4F",
"4  c #23554B",
"5  c #24564D",
"6  c #24564E",
"7  c #265952",
"8  c #295C57",
"9  c #255658",
"0  c #27595B",
"q  c #285B5C",
"w  c #32655C",
"e  c #33665F",
"r  c #2E6361",
"t  c #2E6461",
"y  c #2D6264",
"u  c #386C6A",
"i  c #3C7274",
"p  c #4A7D44",
"a  c #42755C",
"s  c #40756E",
"d  c #487C69",
"f  c #477E7E",
"g  c #4E8049",
"h  c #548F41",
"j  c #559141",
"k  c #5E9943",
"l  c #5E9A43",
"z  c #5A9359",
"x  c #639F46",
"c  c #6BA74E",
"v  c #71AD47",
"b  c #70AC49",
"n  c #72AE4A",
"m  c #75B04A",
"M  c #7DB64E",
"N  c #69A353",
"B  c #6CA750",
"V  c #6FA952",
"C  c #6DA759",
"Z  c #6DA75A",
"A  c #6DA75E",
"S  c #71AC50",
"D  c #77B052",
"F  c #7EB955",
"G  c #4B806F",
"H  c #568D6F",
"J  c #498073",
"K  c #4D8372",
"L  c #528871",
"P  c #538B7D",
"I  c #548B7F",
"U  c #5F9570",
"Y  c #5F957A",
"T  c #60977C",
"R  c #61997A",
"E  c #61997C",
"W  c #649B7E",
"Q  c #659C7E",
"!  c #7FB660",
"~  c #7DB668",
"^  c #8BC55A",
"/  c #97CA75",
"(  c #A7DC6B",
")  c #A7DC6C",
"_  c #487E80",
"`  c #4E8584",
"'  c #4E8684",
"]  c #4E8685",
"[  c #518880",
"{  c #588F80",
"}  c #5A9182",
"|  c #A6D881",
" . c #B9E993",
".. c #94C8AC",
"X. c #95C8AD",
/* pixels */
"                                ",
"                                ",
"              i e w ;           ",
"          i J I } } a 6         ",
"        u I X./ ~ A Q K 6 ;     ",
"      ; d X. .( p l Z W G $     ",
"      4 L | ) g X 1 l Z Y 3 +   ",
"    = 7 z M ^ 2 . = j b E q +   ",
"    = 7 z M ^ 2 . * j b T q @   ",
"    = 7 H V x < . * F v N q @   ",
"      > s R B D , F n I R &     ",
"      ; 8 f E S h n ] B r @     ",
"        % 9 _ ' ' ' W t @       ",
"          + + 0 y y + @         ",
"              @ o +             ",
"                                "
};
