/* XPM */
static char *result[] = {
/* columns rows colors chars-per-pixel */
"16 16 189 2 ",
"   c #160C02",
".  c #170E03",
"X  c #180E03",
"o  c #190F03",
"O  c #1F1102",
"+  c #1D1205",
"@  c #211303",
"#  c #231503",
"$  c #231504",
"%  c #241604",
"&  c #251705",
"*  c #261705",
"=  c #291704",
"-  c #291705",
";  c #261805",
":  c #271805",
">  c #281805",
",  c #2A1905",
"<  c #2B1A05",
"1  c #281806",
"2  c #291806",
"3  c #2A1806",
"4  c #2A1906",
"5  c #2B1906",
"6  c #291A06",
"7  c #301F09",
"8  c #322009",
"9  c #31200A",
"0  c #37210B",
"q  c #3F250B",
"w  c #3D250D",
"e  c #40250A",
"r  c #503C0F",
"t  c #523D0E",
"y  c #402117",
"u  c #412218",
"i  c #49301B",
"p  c #472A20",
"a  c #513726",
"s  c #5F3A22",
"d  c #5F3F28",
"f  c #603B23",
"g  c #51401B",
"h  c #504228",
"j  c #5A4029",
"k  c #504639",
"l  c #6D4125",
"z  c #62472F",
"x  c #6F4328",
"c  c #68452B",
"v  c #6E452D",
"b  c #6F452D",
"n  c #704327",
"m  c #704427",
"M  c #72452A",
"N  c #71472C",
"B  c #74482B",
"V  c #6A4536",
"C  c #654932",
"Z  c #6C4B33",
"A  c #6B4C37",
"S  c #6E4A3B",
"D  c #784032",
"F  c #794132",
"G  c #7B4332",
"H  c #7D4534",
"J  c #734F36",
"K  c #744F35",
"L  c #7B4C30",
"P  c #7B4D30",
"I  c #7C4D30",
"U  c #7C4D32",
"Y  c #7D4E32",
"T  c #7F4935",
"R  c #704A3B",
"E  c #6E503A",
"W  c #6F503A",
"Q  c #725038",
"!  c #795038",
"~  c #7B543A",
"^  c #7D5B38",
"/  c #7A655E",
"(  c #834C3E",
")  c #854D3C",
"_  c #844D3E",
"`  c #815231",
"'  c #875231",
"]  c #805035",
"[  c #805135",
"{  c #815135",
"}  c #815235",
"|  c #825235",
" . c #815136",
".. c #825236",
"X. c #835238",
"o. c #845338",
"O. c #845438",
"+. c #855538",
"@. c #89533D",
"#. c #8A593A",
"$. c #8C5A3A",
"%. c #925D3D",
"&. c #905E3C",
"*. c #965F3E",
"=. c #975F3E",
"-. c #965F3F",
";. c #93603E",
":. c #95603D",
">. c #94623C",
",. c #94623D",
"<. c #835B44",
"1. c #8D5E40",
"2. c #8C5F43",
"3. c #915E41",
"4. c #935F41",
"5. c #945E40",
"6. c #8A634E",
"7. c #966244",
"8. c #976447",
"9. c #9B6344",
"0. c #9D6344",
"q. c #9C6444",
"w. c #9D694B",
"e. c #9E694C",
"r. c #8D6754",
"t. c #9B6C54",
"y. c #966759",
"u. c #986A5B",
"i. c #9D735C",
"p. c #A36A45",
"a. c #A46D50",
"s. c #A57052",
"d. c #A5765C",
"f. c #AD775A",
"g. c #A37A5E",
"h. c #A5785F",
"j. c #B1785E",
"k. c #906F61",
"l. c #A37560",
"z. c #A37660",
"x. c #A37861",
"c. c #A87960",
"v. c #A97E62",
"b. c #AB7F65",
"n. c #AB7E66",
"m. c #AD7F67",
"M. c #AE7F67",
"N. c #B47C62",
"B. c #B67C67",
"V. c #B37E69",
"C. c #B77D68",
"Z. c #AC806B",
"A. c #AE816D",
"S. c #B68060",
"D. c #B38067",
"F. c #B0816A",
"G. c #B0826A",
"H. c #B1826A",
"J. c #B3836B",
"K. c #B6846A",
"L. c #B4846C",
"P. c #B5856D",
"I. c #B4866C",
"U. c #B6876C",
"Y. c #B78A6C",
"T. c #B9886D",
"R. c #BF896C",
"E. c #B88372",
"W. c #BC8A73",
"Q. c #BE8C73",
"!. c #BE8D73",
"~. c #BE8F73",
"^. c #B98A75",
"/. c #BA8C77",
"(. c #BD8C74",
"). c #BE8F75",
"_. c #BD9479",
"`. c #C69680",
"'. c #C79781",
"]. c #C49985",
"[. c #C9A18E",
"{. c #C4A594",
"}. c #D9C5B9",
"|. c #DBC5BA",
" X c #DDCBC1",
".X c #E2D0C6",
"XX c #F5EEEA",
"oX c white",
"OX c None",
/* pixels */
"OXOXOXOXOXOXOXOXOXOXOXOXOXOXOXOX",
"t < > : 5 5 # # O O @ $ : ; & X ",
"g , : : 4 4 : : = - 3 2 : * % . ",
"k : : : : : 7 8 e q w 0 1 * #   ",
"h : j z C C E W K J Q Z d i 6 o ",
"r : g.Y.~.~.'.`.Q.!.).T.f.~ 9 + ",
"^ A b.U.I.I./.^.m.G.(.K.s.2.c a ",
"c.n.L.P.n.n.A.Z.i.x.W.D.w.w.w.<.",
"M.H.|..XS V V.V.F.z.R k.}.{.d.6.",
"J.P.XXoXp u B.C.W.l.y / oX Xn.r.",
"e.a.].[.u.y.5.5.7.8.t.h._.v.1.! ",
"-.0.j.N.E.E.' ' ' %.R.S.p.:.` N ",
",.4.9.q._ ( G G G H ) @.;.$.| b ",
">.3.*.=.F D D D D D D T &.#...v ",
"B M m n ]  . .] L U X.o.+.} I f ",
"M x l l { ....{ P Y O.O.O.[ P s "
};
