/* XPM */
static char *result[] = {
/* columns rows colors chars-per-pixel */
"16 16 133 2 ",
"   c #313051",
".  c #403F5D",
"X  c #434260",
"o  c #4E4D6A",
"O  c #504F6B",
"+  c #575570",
"@  c #5B5972",
"#  c #5F5E77",
"$  c #605F77",
"%  c #65647A",
"&  c #68667E",
"*  c #9D1F12",
"=  c #A11B15",
"-  c #A21B15",
";  c #A71B16",
":  c #A61719",
">  c #A8161A",
",  c #AE101F",
"<  c #B8171B",
"1  c #B7191A",
"2  c #B7191C",
"3  c #BE1C19",
"4  c #99230E",
"5  c #98250D",
"6  c #9D280B",
"7  c #9F290B",
"8  c #9B2110",
"9  c #9F2012",
"0  c #A9270E",
"q  c #AD2A0D",
"w  c #BC2A0F",
"e  c #B52611",
"r  c #B40E21",
"t  c #B50F21",
"y  c #B71020",
"u  c #B71120",
"i  c #B61021",
"p  c #C0171D",
"a  c #C01C1A",
"s  c #C61F18",
"d  c #C81D1A",
"f  c #CE2217",
"g  c #CF2A17",
"h  c #C32219",
"j  c #C82018",
"k  c #D12317",
"l  c #D02416",
"z  c #DC2B13",
"x  c #D92914",
"c  c #DC2E14",
"v  c #DF3213",
"b  c #E33712",
"n  c #E73C12",
"m  c #E83D11",
"M  c #A84F46",
"N  c #A84F47",
"B  c #AD4B4A",
"V  c #AC4C49",
"C  c #B0484D",
"Z  c #A45243",
"A  c #A05640",
"S  c #B64351",
"D  c #B54450",
"F  c #B55F5B",
"G  c #B56956",
"H  c #BF6A58",
"J  c #BC5E60",
"K  c #BC6F64",
"L  c #CB5E5C",
"P  c #C86B59",
"I  c #D76758",
"U  c #D66659",
"Y  c #D1635C",
"T  c #DA6A5A",
"R  c #DD6B5C",
"E  c #C05A64",
"W  c #CB5F62",
"Q  c #E87869",
"!  c #716F84",
"~  c #737286",
"^  c #777689",
"/  c #7D7C8E",
"(  c #8B838F",
")  c #848393",
"_  c #878696",
"`  c #878796",
"'  c #8C8A99",
"]  c #8E8B9B",
"[  c #918F9D",
"{  c #92909F",
"}  c #93929F",
"|  c #9D969E",
" . c #9D969F",
".. c #9694A2",
"X. c #A098A0",
"o. c #A8A0A7",
"O. c #A1A0AA",
"+. c #ADA5AB",
"@. c #A8A7AF",
"#. c #ABA9B2",
"$. c #ACAAB3",
"%. c #B0ADB6",
"&. c #B9B1B5",
"*. c #BCB5B7",
"=. c #B3B1B8",
"-. c #B5B3BA",
";. c #BBBABF",
":. c #C5BDBE",
">. c #C6BEBF",
",. c #C7BFBF",
"<. c #BDBBC0",
"1. c #BFBEC2",
"2. c #C1BFC4",
"3. c #C4C2C6",
"4. c #CAC1C2",
"5. c #C8C3C3",
"6. c #C9C2C4",
"7. c #CDC9C9",
"8. c gray81",
"9. c #D1CACB",
"0. c #D2CACB",
"q. c #D1CFD0",
"w. c #D7CFD0",
"e. c #D3D2D2",
"r. c #D7D5D5",
"t. c #D9D4D4",
"y. c #D8D5D5",
"u. c #E5E3E3",
"i. c #E8E6E6",
"p. c #EEECEC",
"a. c #EFEDED",
"s. c #F4F3F3",
"d. c #FEFEFE",
/* pixels */
"m n l 2 m b j h h m v a g m c < ",
"z x , 7 z k > q q z d = w z p 8 ",
"z x , 7 z k > q q z d = w z p 8 ",
"z x , 7 z k > q q z d = w z p 8 ",
"Q U E G I Y J H H T L F P R W K ",
"d.q...{ } 3.#.y.y.=.@.-...] <.s.",
"a.6.~   ) #.o O.O.` ^ $.+ @ -.i.",
"p.5.2.X r.#.O _ _ # / e.! [ 9.t.",
"p.5.2.X r.#.O _ _ # / e.! [ 9.t.",
"d.r.1.. r.%.& ;.;.$ ~ 8.% ' 7.u.",
"w.4.*.( >.&. .:.:.o.X.:.| +.,.0.",
"S D A Z S C A N N S V A B S M A ",
"k f : 6 k s - 0 0 k 3 * e k 1 4 ",
"z x , 7 z k > q q z d = w z p 8 ",
"z x , 7 z k > q q z d = w z p 8 ",
"u y , 5 u i > 9 9 u t = ; u r 8 "
};
